<?xml version="1.0"?>
<svg xmlns="http://www.w3.org/2000/svg" xmlns:xlink="http://www.w3.org/1999/xlink" version="1.1" id="Capa_1" x="0px" y="0px" viewBox="0 0 411.349 411.349" style="enable-background:new 0 0 411.349 411.349;" xml:space="preserve" width="512px" height="512px" class=""><g><g>
	<g>
		<path style="fill:none;" d="M62.269,159.279v31.985h325.08v-31.985c0-7.274-5.92-13.192-13.195-13.192H75.464    C68.188,146.086,62.269,152.004,62.269,159.279z"/>
		<path style="fill:none;" d="M356.435,122.086l-14.728-62.872c-0.012-0.044-0.022-0.089-0.031-0.134    c-1.578-7.103-8.643-11.599-15.74-10.021L34.341,113.789c-7.102,1.577-11.596,8.638-10.02,15.741l13.947,63.421v-33.672    c0-20.508,16.686-37.192,37.195-37.192H356.435z"/>
		<path style="fill:none;" d="M62.269,303.197c0,0.018,0,0.036,0,0.054v46.165c0,7.275,5.92,13.193,13.195,13.193h298.69    c7.275,0,13.195-5.919,13.195-13.193v-83.068H62.269V303.197z"/>
		<rect x="62.269" y="215.264" style="fill:#C9D5D9" width="325.08" height="27.083" data-original="#73D0F4" class="active-path" data-old_color="#73D0F4"/>
		<path style="fill:#007BFF" d="M381.243,122.772l-16.156-68.974c-4.482-19.976-24.367-32.61-44.354-28.17L29.14,90.36    c-20.02,4.445-32.691,24.35-28.254,44.348l37.383,169.975v44.733c0,20.508,16.686,37.193,37.195,37.193h298.69    c20.51,0,37.195-16.685,37.195-37.193v-95.068v-51.083v-43.985C411.349,141.196,398.372,126.093,381.243,122.772z     M374.153,146.086c7.275,0,13.195,5.918,13.195,13.192v31.985H62.269v-31.985c0-7.274,5.92-13.192,13.195-13.192H374.153z     M387.349,242.347H62.269v-27.083h325.08V242.347z M38.269,159.279v33.672L24.321,129.53c-1.576-7.103,2.918-14.164,10.02-15.741    l291.594-64.731c7.098-1.578,14.162,2.918,15.74,10.021c0.01,0.045,0.02,0.09,0.031,0.134l14.728,62.872H75.464    C54.954,122.086,38.269,138.771,38.269,159.279z M387.349,349.415c0,7.275-5.92,13.193-13.195,13.193H75.464    c-7.275,0-13.195-5.919-13.195-13.193v-46.165c0-0.018,0-0.036,0-0.054v-36.85h325.08V349.415z" data-original="#3D6889" class="" data-old_color="#3D6889"/>
	</g>
</g></g> </svg>
