<svg height="512pt" viewBox="-116 0 512 512" width="512pt" xmlns="http://www.w3.org/2000/svg"><path d="m80.136719 326.011719h119.394531c27.402344 0 50.398438-20.65625 53.324219-47.902344l13.898437-129.320313c8.109375-75.464843-51.023437-141.289062-126.917968-141.289062-75.898438 0-135.027344 65.824219-126.917969 141.285156l13.894531 129.324219c2.929688 27.246094 25.925781 47.902344 53.324219 47.902344zm0 0" fill="#ba6f3c"/><path d="m267.496094 412.917969v91.582031h-255.320313v-91.582031c0-36.253907 19.773438-67.878907 49.132813-84.671875 14.25-8.152344 30.746094-12.808594 48.335937-12.808594h60.371094c17.949219 0 34.773437 4.851562 49.214844 13.324219 28.878906 16.914062 48.265625 48.261719 48.265625 84.15625zm0 0" fill="#faaa3c"/><path d="m218.796875 328.761719c-2.871094 41.101562-37.125 73.539062-78.945313 73.539062-42.007812 0-76.363281-32.714843-78.976562-74.054687 14.246094-8.152344 30.742188-12.808594 48.335938-12.808594h60.367187c17.953125-.003906 34.773437 4.847656 49.21875 13.324219zm0 0" fill="#ffeb9b"/><g fill="#f8c298"><path d="m139.835938 352.605469c-12.429688 0-22.503907-10.074219-22.503907-22.503907v-63.125h45.007813v63.125c0 12.429688-10.078125 22.503907-22.503906 22.503907zm0 0"/><path d="m272.171875 190.933594c0 16.734375-13.566406 30.300781-30.300781 30.300781s-30.296875-13.566406-30.296875-30.300781 13.5625-30.296875 30.296875-30.296875 30.300781 13.5625 30.300781 30.296875zm0 0"/><path d="m68.097656 190.933594c0 16.734375-13.566406 30.300781-30.300781 30.300781s-30.296875-13.566406-30.296875-30.300781 13.5625-30.296875 30.296875-30.296875 30.300781 13.5625 30.300781 30.296875zm0 0"/></g><path d="m44.332031 105 14.472657 115.875c5.105468 40.867188 39.84375 71.539062 81.03125 71.539062 41.183593 0 75.925781-30.671874 81.027343-71.539062l14.476563-115.875zm0 0" fill="#ffd6c0"/><path d="m29.628906 94.179688v33.339843s62.488282 22.238281 107.496094-18.972656c0 0 17.28125 54.945313 91.640625 66.269531 5.679687.867188 10.972656-3.097656 11.730469-8.792968l9.542968-71.84375zm0 0" fill="#ba6f3c"/><path d="m200.695312 219.824219c0 4.519531-3.667968 8.1875-8.1875 8.1875-4.523437 0-8.191406-3.667969-8.191406-8.1875 0-4.523438 3.667969-8.191407 8.191406-8.191407 4.519532 0 8.1875 3.667969 8.1875 8.191407zm0 0" fill="#ed7a98"/><path d="m95.351562 219.824219c0 4.519531-3.664062 8.1875-8.1875 8.1875-4.523437 0-8.1875-3.667969-8.1875-8.1875 0-4.523438 3.664063-8.191407 8.1875-8.191407 4.523438 0 8.1875 3.667969 8.1875 8.191407zm0 0" fill="#ed7a98"/><path d="m158.824219 468.558594c0 10.488281-8.5 18.988281-18.988281 18.988281-10.488282 0-18.992188-8.5-18.992188-18.988281 0-10.488282 8.503906-18.992188 18.992188-18.992188 10.488281 0 18.988281 8.503906 18.988281 18.992188zm0 0" fill="#ebeef2"/><path d="m228.824219 325.992188c11.9375-6.5625 21.585937-17.023438 26.980469-29.730469 1.617187-3.816407-.164063-8.21875-3.976563-9.835938-3.8125-1.617187-8.214844.164063-9.832031 3.976563-5.425782 12.785156-16.558594 22.566406-29.882813 26.351562-12.894531-5.667968-27.132812-8.820312-42.09375-8.820312h-.179687v-13.253906c29.59375-10.625 52.269531-36.5 57.84375-68.695313 4.457031 1.808594 9.242187 2.75 14.1875 2.75 3.050781 0 6.015625-.375 8.859375-1.058594l-3.457031 32.191407c-.445313 4.121093 2.535156 7.816406 6.65625 8.261718.269531.027344.539062.042969.808593.042969 3.78125 0 7.035157-2.855469 7.449219-6.699219l4.523438-42.082031c7.933593-6.933594 12.960937-17.117187 12.960937-28.457031 0-8.441406-2.785156-16.246094-7.480469-22.546875l2.019532-18.796875c4.734374-44.078125-12.488282-87.726563-46.070313-116.761719-3.132813-2.707031-7.871094-2.363281-10.578125.769531-2.710938 3.132813-2.367188 7.871094.765625 10.578125 29.863281 25.820313 45.179687 64.625 40.96875 103.808594l-.960937 8.929687c-2.726563-1.320312-5.632813-2.324218-8.671876-2.964843l2.445313-18.402344c.542969-4.105469-2.339844-7.878906-6.449219-8.421875-4.105468-.546875-7.875 2.339844-8.421875 6.445312l-4.179687 31.464844c-.132813 1-.734375 1.582032-1.078125 1.84375-.351563.261719-1.082031.679688-2.085938.523438-28.777343-4.378906-51.910156-15.964844-68.757812-34.425782-12.613281-13.820312-16.828125-26.578124-16.859375-26.679687-.769532-2.445313-2.734375-4.328125-5.210938-4.992187-2.472656-.664063-5.117187-.019532-7.007812 1.710937-32.542969 29.796875-75.539063 23.574219-92.519532 19.511719-4.027343-.960938-8.074218 1.523437-9.035156 5.550781-.964844 4.027344 1.519532 8.074219 5.546875 9.039063 1.453125.347656 3.089844.707031 4.863281 1.0625l1.910157 15.296874c-1.65625-.21875-3.332031-.339843-5.027344-.339843-5.898437 0-11.484375 1.359375-16.464844 3.777343l-.960937-8.929687c-3.636719-33.851563 7.324218-67.796875 30.078125-93.128906 22.753906-25.328125 55.335937-39.855469 89.386719-39.855469 18.34375 0 35.929687 4.011719 52.273437 11.921875 3.726563 1.804687 8.214844.242187 10.019531-3.484375 1.804688-3.726562.246094-8.210938-3.484375-10.015625-18.398437-8.90625-38.183593-13.421875-58.808593-13.421875-38.300782 0-74.945313 16.339844-100.539063 44.832031-25.597656 28.492188-37.929687 66.675781-33.835937 104.757813l2.019531 18.796875c-4.695313 6.300781-7.480469 14.105469-7.480469 22.546875 0 11.339844 5.027344 21.523437 12.960938 28.457031l6.394531 59.519531c2.15625 20.070313 14.242187 37.605469 31.476562 47.089844-27.835937 18.898438-46.160156 50.804688-46.160156 86.910156v30.910156c0 4.144532 3.359375 7.5 7.5 7.5s7.5-3.355468 7.5-7.5v-30.910156c0-29.136718 13.925781-55.078125 35.464844-71.53125 8.410156 39.246094 43.4375 68.421875 84.714843 68.421875 41.167969 0 76.265626-29.199219 84.703126-68.40625 21.527343 16.457031 35.441406 42.390625 35.441406 71.515625v91.589844c0 4.140625 3.359375 7.5 7.5 7.5 4.144531 0 7.5-3.359375 7.5-7.5v-91.589844c0-36.109375-18.328125-68.019531-46.171875-86.917968zm-103.992188-27.371094c4.890625.835937 9.898438 1.292968 15.003907 1.292968 5.105468 0 10.113281-.457031 15.003906-1.292968v31.480468c0 8.273438-6.730469 15.003907-15.003906 15.003907-8.273438 0-15.003907-6.730469-15.003907-15.003907zm104.921875-88.386719 3.503906-28.039063c2.769532-.460937 5.410157-1.582031 7.726563-3.320312 3.339844-2.507812 5.636719-6.015625 6.597656-10.015625 9.816407 2.542969 17.089844 11.476563 17.089844 22.074219 0 12.570312-10.230469 22.800781-22.800781 22.800781-4.355469 0-8.496094-1.210937-12.117188-3.5zm-95.488281-89.601563c3.03125 5.828126 7.878906 13.652344 15.214844 21.816407 12.199219 13.574219 33.796875 30.640625 68.867187 38.082031l-4.925781 39.414062c-4.625 37.039063-36.261719 64.96875-73.585937 64.96875-37.328126 0-68.960938-27.929687-73.589844-64.96875l-9.933594-79.53125c21.480469 1.949219 51.601562-.179687 77.953125-19.78125zm-89.46875 48.605469 5.121094 40.996094c-3.621094 2.285156-7.761719 3.496094-12.121094 3.496094-12.570313 0-22.796875-10.226563-22.796875-22.796875 0-12.570313 10.226562-22.800782 22.796875-22.800782 2.40625.003907 4.75.382813 7 1.105469zm-10.523437 108.070313-5.335938-49.632813c2.84375.683594 5.808594 1.058594 8.863281 1.058594 4.875 0 9.699219-.960937 14.179688-2.773437 5.566406 32.203124 28.246093 58.09375 57.851562 68.71875v13.253906h-.179687c-14.96875 0-29.210938 3.15625-42.109375 8.824218-17.949219-5.09375-31.269531-20.828124-33.269531-39.449218zm105.578124 117.492187c-36.039062 0-66.292968-26.894531-70.988281-62.082031 12.25-6.253906 26.117188-9.785156 40.789063-9.785156h.179687v7.167968c0 16.542969 13.457031 30.003907 30.003907 30.003907 16.542968 0 30.003906-13.457031 30.003906-30.003907v-7.167968h.179687c14.683594 0 28.558594 3.535156 40.820313 9.804687-4.710938 35.144531-35.046875 62.0625-70.988282 62.0625zm0 0"/><path d="m12.171875 470.5c-4.140625 0-7.5 3.359375-7.5 7.5v26.5c0 4.140625 3.359375 7.5 7.5 7.5s7.5-3.359375 7.5-7.5v-26.5c0-4.140625-3.359375-7.5-7.5-7.5zm0 0"/><path d="m95.480469 196.699219c.070312 0 .140625 0 .210937-.003907 4.140625-.113281 7.402344-3.5625 7.289063-7.703124l-.128907-4.800782c-.113281-4.140625-3.554687-7.421875-7.703124-7.292968-4.140626.113281-7.40625 3.5625-7.292969 7.703124l.132812 4.800782c.109375 4.074218 3.445313 7.296875 7.492188 7.296875zm0 0"/><path d="m184.3125 196.699219c.070312 0 .140625 0 .210938-.003907 4.140624-.113281 7.402343-3.5625 7.289062-7.703124l-.128906-4.800782c-.113282-4.140625-3.558594-7.421875-7.703125-7.292968-4.140625.113281-7.40625 3.5625-7.292969 7.703124l.132812 4.800782c.109376 4.074218 3.445313 7.296875 7.492188 7.296875zm0 0"/><path d="m139.835938 239.261719c13.042968 0 25.410156-6.320313 33.074218-16.90625 2.429688-3.351563 1.679688-8.042969-1.675781-10.472657-3.355469-2.429687-8.042969-1.679687-10.472656 1.675782-4.855469 6.703125-12.675781 10.703125-20.925781 10.703125s-16.074219-4-20.925782-10.703125c-2.429687-3.355469-7.117187-4.105469-10.476562-1.675782-3.351563 2.429688-4.105469 7.121094-1.675782 10.472657 7.667969 10.585937 20.03125 16.90625 33.078126 16.90625zm0 0"/><path d="m54.386719 393.941406c-4.144531 0-7.5 3.359375-7.5 7.5v103.058594c0 4.140625 3.355469 7.5 7.5 7.5 4.140625 0 7.5-3.359375 7.5-7.5v-103.058594c0-4.140625-3.359375-7.5-7.5-7.5zm0 0"/><path d="m225.285156 393.941406c-4.144531 0-7.5 3.359375-7.5 7.5v103.058594c0 4.140625 3.355469 7.5 7.5 7.5 4.140625 0 7.5-3.359375 7.5-7.5v-103.058594c0-4.140625-3.359375-7.5-7.5-7.5zm0 0"/><path d="m156.050781 447.632812 2.511719-18.425781c.558594-4.105469-2.3125-7.886719-6.417969-8.445312-4.113281-.5625-7.882812 2.3125-8.445312 6.417969l-2.039063 14.957031c-.605468-.039063-1.210937-.070313-1.824218-.070313-.613282 0-1.222657.03125-1.824219.070313l-2.042969-14.957031c-.558594-4.105469-4.339844-6.980469-8.445312-6.417969-4.101563.558593-6.976563 4.339843-6.414063 8.445312l2.511719 18.425781c-6.246094 4.851563-10.277344 12.425782-10.277344 20.925782 0 14.605468 11.882812 26.488281 26.492188 26.488281 14.605468 0 26.488281-11.882813 26.488281-26.488281 0-8.5-4.03125-16.074219-10.273438-20.925782zm-16.214843 32.414063c-6.335938 0-11.492188-5.152344-11.492188-11.488281 0-6.335938 5.15625-11.492188 11.492188-11.492188 6.335937 0 11.488281 5.15625 11.488281 11.492188 0 6.335937-5.152344 11.488281-11.488281 11.488281zm0 0"/></svg>