<?xml version="1.0" encoding="iso-8859-1"?>
<!-- Generator: Adobe Illustrator 19.0.0, SVG Export Plug-In . SVG Version: 6.00 Build 0)  -->
<svg version="1.1" id="Capa_1" xmlns="http://www.w3.org/2000/svg" xmlns:xlink="http://www.w3.org/1999/xlink" x="0px" y="0px"
	 viewBox="0 0 485.656 485.656" style="enable-background:new 0 0 485.656 485.656;" xml:space="preserve">
<path style="fill:#EFD06F;" d="M357.656,316.064l-48,48L146.912,335.76c-11.096-1.928-21.256,6.616-21.256,17.88
	c0,6.456,3.432,12.424,9,15.672l174.52,101.808c5.288,3.088,11.784,3.296,17.256,0.56l87.224-43.616h32v-112H357.656z"/>
<polygon style="fill:#F4F2ED;" points="445.656,316.064 445.656,428.064 445.656,436.064 477.656,436.064 477.656,308.064 
	445.656,308.064 "/>
<polygon style="fill:#0D9CA0;" points="397.656,76.064 437.656,76.064 437.656,44.064 437.656,12.064 133.656,12.064 
	133.656,44.064 133.656,76.064 173.656,76.064 "/>
<path style="fill:#36C2CC;" d="M397.656,76.064h-224c0,22.08-17.92,40-40,40v32h56c13.28,0,24,10.72,24,24c0,13.256-10.744,24-24,24
	h-56v32c22.08,0,40,17.92,40,40h224c0-22.08,17.92-40,40-40v-112C415.576,116.064,397.656,98.144,397.656,76.064z M285.656,212.064
	c-22.08,0-40-17.92-40-40s17.92-40,40-40s40,17.92,40,40S307.736,212.064,285.656,212.064z"/>
<g>
	<circle style="fill:#F4F2ED;" cx="285.656" cy="172.064" r="40"/>
	<path style="fill:#F4F2ED;" d="M133.656,228.064v40h40C173.656,245.984,155.736,228.064,133.656,228.064z"/>
	<path style="fill:#F4F2ED;" d="M173.656,76.064h-40v8v32C155.736,116.064,173.656,98.144,173.656,76.064z"/>
	<path style="fill:#F4F2ED;" d="M437.656,116.064v-40h-40C397.656,98.144,415.576,116.064,437.656,116.064z"/>
	<path style="fill:#F4F2ED;" d="M397.656,268.064h40v-40C415.576,228.064,397.656,245.984,397.656,268.064z"/>
</g>
<path style="fill:#EFD06F;" d="M133.656,228.064v-32h56c13.256,0,24-10.744,24-24s-10.744-24-24-24h-56v-32v-32h-72l-56,56v128h128
	V228.064z"/>
<g>
	<path style="fill:#0F2323;" d="M477.656,300.064h-32c-4.424,0-8,3.584-8,8h-80c-2.128,0-4.16,0.84-5.656,2.344l-45.064,45.064
		L148.28,327.88c-7.608-1.312-15.384,0.768-21.312,5.752c-5.912,4.976-9.312,12.272-9.312,20.008
		c0,9.256,4.968,17.912,12.968,22.584l174.52,101.8c4.072,2.376,8.616,3.576,13.168,3.568c4,0,8-0.92,11.704-2.768l85.528-42.76
		h22.112c0,4.416,3.576,8,8,8h32c4.424,0,8-3.584,8-8v-128C485.656,303.648,482.08,300.064,477.656,300.064z M413.656,420.064
		c-1.24,0-2.472,0.288-3.576,0.84l-87.224,43.616c-3.088,1.536-6.696,1.416-9.648-0.312l-174.512-101.8
		c-3.112-1.816-5.04-5.176-5.04-8.768c0-3,1.32-5.832,3.616-7.768c2.296-1.928,5.304-2.736,8.272-2.232l147.552,25.664l-6.48,6.48
		c-5.776,5.784-8.96,13.472-8.96,21.648c0,16.896,13.744,30.632,30.624,30.632c8.184,0,15.872-3.184,21.656-8.976l41.376-41.368
		L360,366.408l-41.376,41.376c-2.728,2.72-6.488,4.28-10.344,4.28c-8.064,0-14.624-6.56-14.624-14.632
		c0-3.904,1.52-7.584,4.28-10.344l63.032-63.024h76.688v96H413.656z M453.656,316.064h16v112h-16V316.064z"/>
	<path style="fill:#0F2323;" d="M285.656,220.064c26.472,0,48-21.528,48-48s-21.528-48-48-48s-48,21.528-48,48
		S259.184,220.064,285.656,220.064z M285.656,140.064c17.648,0,32,14.352,32,32s-14.352,32-32,32s-32-14.352-32-32
		S268.008,140.064,285.656,140.064z"/>
	<path style="fill:#0F2323;" d="M64.968,92.064h60.688v24v24h-40v16h48h56c8.824,0,16,7.176,16,16c0,4.264-1.664,8.28-4.696,11.304
		c-3.032,3.024-7.048,4.696-11.304,4.696h-56c-1.072,0-2.112,0.216-3.08,0.624c-0.976,0.408-1.848,0.992-2.584,1.728L104,214.408
		l11.312,11.312l10.344-10.344v12.688v32h-120v16h128h40h224h40c4.424,0,8-3.584,8-8v-40v-112v-40v-32v-32c0-4.416-3.576-8-8-8h-304
		c-4.424,0-8,3.584-8,8v32v32h-64c-2.128,0-4.16,0.84-5.656,2.344l-56,56l11.312,11.312L64.968,92.064z M429.656,107.056
		c-11.224-2.904-20.088-11.76-22.984-22.992h22.984V107.056z M429.656,68.064h-32h-224h-32v-16h288V68.064z M164.64,84.064
		c-2.896,11.232-11.76,20.088-22.984,22.992V84.064H164.64z M189.656,204.064c8.528,0,16.568-3.336,22.616-9.384
		c6.056-6.048,9.384-14.08,9.384-22.616c0-17.648-14.352-32-32-32h-48v-16.72c20.056-3.384,35.888-19.224,39.28-39.28h209.44
		c3.384,20.056,19.224,35.888,39.28,39.28v97.44c-20.056,3.384-35.888,19.224-39.28,39.28h-209.44
		c-3.384-20.056-19.224-35.888-39.28-39.28v-16.72H189.656z M141.656,260.064v-22.992c11.224,2.904,20.088,11.76,22.984,22.992
		H141.656z M429.656,260.064h-22.984c2.896-11.232,11.76-20.088,22.984-22.992V260.064z M141.656,20.064h288v16h-288V20.064z"/>
</g>
<g>
</g>
<g>
</g>
<g>
</g>
<g>
</g>
<g>
</g>
<g>
</g>
<g>
</g>
<g>
</g>
<g>
</g>
<g>
</g>
<g>
</g>
<g>
</g>
<g>
</g>
<g>
</g>
<g>
</g>
</svg>
